<svg width="128" height="184" viewBox="0 0 128 184" fill="none" xmlns="http://www.w3.org/2000/svg">
<path d="M64.6875 165.674C54.6094 165.674 46.2598 163.857 39.6387 160.225C33.0176 156.592 27.9199 151.904 24.3457 146.162C20.7715 140.361 18.457 134.092 17.4023 127.354C16.4062 120.615 16.4941 114.141 17.666 107.93C19.5996 107.402 21.416 107.051 23.1152 106.875C24.8145 106.641 26.4844 106.523 28.125 106.523C32.8125 106.523 36.9434 107.109 40.5176 108.281C44.0918 109.453 47.373 110.889 50.3613 112.588C53.3496 114.229 56.3086 115.898 59.2383 117.598C62.2266 119.297 65.4492 120.732 68.9062 121.904C72.3633 123.018 76.3477 123.574 80.8594 123.574C85.8398 123.574 90.1172 122.783 93.6914 121.201C97.3242 119.561 100.547 117.656 103.359 115.488C106.172 113.262 108.809 111.299 111.27 109.6C111.562 113.232 111.387 117.51 110.742 122.432C110.098 127.295 108.838 132.246 106.963 137.285C105.088 142.266 102.363 146.924 98.7891 151.26C95.2148 155.537 90.6445 158.994 85.0781 161.631C79.5117 164.326 72.7148 165.674 64.6875 165.674ZM63.6328 183.34C50.918 183.34 39.7852 180.732 30.2344 175.518C20.6836 170.361 13.2422 163.125 7.91016 153.809C2.63672 144.492 0 133.623 0 121.201C0 115.4 0.644531 109.6 1.93359 103.799C3.28125 97.9395 4.95117 92.2559 6.94336 86.748C8.99414 81.2402 11.1035 76.1426 13.2715 71.4551C17.959 61.1426 23.5547 50.5957 30.0586 39.8145C36.5625 28.9746 43.0078 18.6328 49.3945 8.78906C51.2109 6.03516 53.2617 3.89648 55.5469 2.37305C57.832 0.791016 60.5273 0 63.6328 0C66.7383 0 69.4336 0.791016 71.7188 2.37305C74.0039 3.89648 76.0547 6.03516 77.8711 8.78906C84.1992 18.5156 90.5566 28.7402 96.9434 39.4629C103.389 50.127 108.926 60.5273 113.555 70.6641C115.781 75.4688 117.949 80.6836 120.059 86.3086C122.168 91.875 123.867 97.6172 125.156 103.535C126.504 109.453 127.178 115.342 127.178 121.201C127.178 133.623 124.541 144.492 119.268 153.809C113.994 163.125 106.582 170.361 97.0312 175.518C87.4805 180.732 76.3477 183.34 63.6328 183.34ZM63.6328 163.564C72.4219 163.564 80.0977 161.807 86.6602 158.291C93.2227 154.775 98.3203 149.854 101.953 143.525C105.645 137.139 107.49 129.697 107.49 121.201C107.49 114.287 106.318 107.344 103.975 100.371C101.631 93.3984 99.0234 86.7773 96.1523 80.5078C91.7578 70.3711 86.748 60.8789 81.123 52.0312C75.5566 43.1836 70.0195 34.5996 64.5117 26.2793C64.2188 25.8105 63.9258 25.6055 63.6328 25.6641C63.3398 25.7227 63.0469 25.9277 62.7539 26.2793C57.1875 34.6582 51.5918 43.3301 45.9668 52.2949C40.4004 61.2012 35.3613 70.7227 30.8496 80.8594C28.0371 87.0703 25.4883 93.6328 23.2031 100.547C20.918 107.461 19.7754 114.346 19.7754 121.201C19.7754 129.697 21.5918 137.139 25.2246 143.525C28.916 149.854 34.043 154.775 40.6055 158.291C47.168 161.807 54.8438 163.564 63.6328 163.564Z" fill="#F2F2F7"/>
</svg>
